<svg width="12" height="11" viewBox="0 0 12 11" fill="none" xmlns="http://www.w3.org/2000/svg">
<path fill-rule="evenodd" clip-rule="evenodd" d="M6.79985 0.741063L10.8114 4.7526C11.2698 5.21107 11.2698 5.89876 10.8114 6.35722L6.79985 10.3688C6.57062 10.598 6.28408 10.7126 5.99754 10.7126C5.711 10.7126 5.42446 10.598 5.19523 10.3688L1.18369 6.35722C0.725228 5.89876 0.725228 5.21107 1.18369 4.7526L5.19523 0.741063C5.42446 0.511832 5.711 0.397217 5.99754 0.397217C6.28408 0.397217 6.57062 0.511832 6.79985 0.741063ZM6.34139 9.91024L10.3529 5.89869C10.4675 5.78408 10.5249 5.66946 10.5249 5.55485C10.5249 5.44023 10.4675 5.32562 10.2956 5.211L6.28408 1.19946C6.16947 1.14215 6.05485 1.08484 5.94023 1.08484C5.82562 1.08484 5.711 1.08484 5.59639 1.19946L1.58485 5.211C1.52754 5.32562 1.47023 5.44023 1.47023 5.55485C1.47023 5.66946 1.52754 5.78408 1.64215 5.89869L5.6537 9.91024C5.76831 10.0249 5.88293 10.0249 5.99754 10.0249C6.11216 10.0249 6.22677 10.0249 6.34139 9.91024Z" fill="#D52B1E"/>
</svg>
