<svg width="12" height="11" fill="none" xmlns="http://www.w3.org/2000/svg"><path fill-rule="evenodd" clip-rule="evenodd" d="m6.8.741 4.011 4.012a1.108 1.108 0 0 1 0 1.604L6.8 10.37c-.23.229-.516.344-.802.344-.287 0-.574-.115-.803-.344L1.184 6.357a1.108 1.108 0 0 1 0-1.604L5.195.74c.23-.23.516-.344.803-.344.286 0 .573.115.802.344Zm-.459 9.17 4.012-4.012c.114-.115.172-.23.172-.344 0-.115-.058-.23-.23-.344l-4.01-4.012c-.116-.057-.23-.114-.345-.114-.114 0-.229 0-.344.114L1.585 5.211c-.057.115-.115.23-.115.344 0 .114.058.23.172.344L5.654 9.91c.114.115.229.115.344.115.114 0 .229 0 .343-.115Z" fill="#D52B1E"/></svg>