<svg width="11" height="11" fill="none" xmlns="http://www.w3.org/2000/svg"><path fill-rule="evenodd" clip-rule="evenodd" d="m6.55.741 4.011 4.012a1.108 1.108 0 0 1 0 1.604L6.55 10.37c-.23.229-.516.344-.802.344-.287 0-.573-.115-.803-.344L.934 6.357a1.108 1.108 0 0 1 0-1.604L4.945.74c.23-.23.516-.344.803-.344.286 0 .573.115.802.344Zm-.459 9.17 4.012-4.012c.115-.115.172-.23.172-.344 0-.115-.057-.23-.23-.344l-4.01-4.012c-.115-.057-.23-.114-.345-.114-.114 0-.229 0-.344.114L1.335 5.211c-.057.115-.115.23-.115.344 0 .114.058.23.172.344L5.404 9.91c.114.115.229.115.344.115.114 0 .229 0 .343-.115Z" fill="#D52B1E"/></svg>