<svg width="20" height="20" fill="none" xmlns="http://www.w3.org/2000/svg"><path fill-rule="evenodd" clip-rule="evenodd" d="m15.516.57 3.879 3.878c.392.392.605.89.605 1.424v12.135A1.99 1.99 0 0 1 18.007 20H1.993A1.99 1.99 0 0 1 0 18.007V1.993A1.99 1.99 0 0 1 1.993 0h12.1c.533 0 1.032.178 1.423.57ZM11.53 5.088V1.316H4.448V5.09a.23.23 0 0 0 .214.213h6.655a.23.23 0 0 0 .213-.213ZM4.413 18.647V12.42a.23.23 0 0 1 .213-.214h10.677a.23.23 0 0 1 .213.214v6.227H4.413Zm13.558.036c.392 0 .677-.32.677-.676h-.036V5.837c.036-.179-.035-.321-.178-.463l-3.879-3.88a.677.677 0 0 0-.463-.177h-1.21v3.736a1.58 1.58 0 0 1-1.565 1.566H4.662a1.58 1.58 0 0 1-1.566-1.566V1.281H1.993a.676.676 0 0 0-.676.676v16.014c0 .392.32.677.676.677H3.06V12.42a1.58 1.58 0 0 1 1.566-1.566h10.676a1.58 1.58 0 0 1 1.566 1.566v6.263h1.104Z" fill="#010101"/></svg>